<?xml version="1.0" encoding="utf-8" ?>
<svg xmlns="http://www.w3.org/2000/svg" xmlns:xlink="http://www.w3.org/1999/xlink" width="97" height="39">
	<defs>
		<clipPath id="clip_0">
			<rect x="-128.62598" y="-15.623535" width="1411.2" height="1720.8799" clip-rule="evenodd"/>
		</clipPath>
	</defs>
	<g clip-path="url(#clip_0)">
		<path fill="rgb(38,51,150)" stroke="none" transform="matrix(0.98 0 0 0.98 0.734375 0.0566406)" d="M3.36194 30.7476L0 30.7476L0 0L3.36194 0L3.36194 30.7476ZM22.9558 7.83039C26.1811 7.83039 28.9212 8.99196 31.1762 11.3151C33.4312 13.6383 34.5586 16.426 34.5586 19.6785C34.5586 22.9309 33.4448 25.7118 31.2172 28.0213C28.9895 30.3308 26.2358 31.4856 22.9558 31.4856C19.6759 31.4856 16.9153 30.3308 14.674 28.0213C12.4327 25.7118 11.3121 22.9309 11.3121 19.6785C11.3121 16.426 12.4395 13.6383 14.6945 11.3151C16.9495 8.99196 19.7032 7.83039 22.9558 7.83039ZM65.2633 25.5C65.2633 28.4518 65.0105 30.6383 64.5048 32.0595C63.9992 33.4807 63.2339 34.6833 62.2089 35.6672C61.1839 36.6512 59.9539 37.3959 58.5189 37.9016C57.084 38.4072 55.5055 38.66 53.7835 38.66C47.9616 38.66 44.0804 36.2002 42.1397 31.2806L45.7477 31.2806C47.333 34.123 49.9706 35.5442 53.6605 35.5442C55.3552 35.5442 56.8721 35.2163 58.2114 34.5603C59.5508 33.9044 60.4937 33.0298 61.0404 31.9365C61.587 30.8433 61.8604 29.1624 61.8604 26.8939L61.8604 26.6889C60.7944 27.8915 59.5098 28.8071 58.0065 29.4357C56.5031 30.0643 54.9452 30.3786 53.3325 30.3786C50.1072 30.3786 47.4082 29.2717 45.2352 27.0579C43.0622 24.8441 41.9894 22.234 42.0168 19.2275C41.9894 16.0844 43.1237 13.3991 45.4197 11.1716C47.7157 8.94413 50.4421 7.83039 53.599 7.83039C56.756 7.83039 59.5097 9.11495 61.8604 11.6841L61.8604 8.40435L65.2633 8.40435L65.2633 25.5ZM84.8572 7.83039C88.0825 7.83039 90.8226 8.99196 93.0776 11.3151C95.3325 13.6383 96.46 16.426 96.46 19.6785C96.46 22.9309 95.3462 25.7118 93.1186 28.0213C90.8909 30.3308 88.1372 31.4856 84.8572 31.4856C81.5773 31.4856 78.8167 30.3308 76.5754 28.0213C74.3341 25.7118 73.2134 22.9309 73.2134 19.6785C73.2134 16.426 74.3409 13.6383 76.5959 11.3151C78.8508 8.99196 81.6046 7.83039 84.8572 7.83039ZM59.6259 13.406C61.1976 14.9365 61.9834 16.877 61.9834 19.2275C61.9834 21.5507 61.2112 23.457 59.6669 24.9466C58.1226 26.4361 56.1342 27.1809 53.7015 27.1809C51.2689 27.1809 49.2736 26.4225 47.7156 24.9056C46.1577 23.3887 45.3787 21.537 45.3787 19.3505C45.3787 17.164 46.1918 15.244 47.8181 13.5904C49.4445 11.9369 51.4602 11.1101 53.8655 11.1101C56.1342 11.1101 58.0543 11.8754 59.6259 13.406ZM28.7572 25.7665C27.1583 27.42 25.2245 28.2468 22.9558 28.2468C20.6052 28.2468 18.6509 27.4269 17.093 25.787C15.535 24.1471 14.756 22.152 14.756 19.8015C14.756 17.451 15.5623 15.4216 17.1749 13.7134C18.7876 12.0052 20.7077 11.1511 22.9353 11.1511C25.163 11.1511 27.0899 12.0052 28.7162 13.7134C30.3425 15.4216 31.1557 17.4441 31.1557 19.781C31.1557 22.1178 30.3562 24.113 28.7572 25.7665ZM90.6586 25.7665C89.0596 27.42 87.1259 28.2468 84.8572 28.2468C82.5066 28.2468 80.5523 27.4269 78.9943 25.787C77.4363 24.1471 76.6574 22.152 76.6574 19.8015C76.6574 17.451 77.4637 15.4216 79.0763 13.7134C80.689 12.0052 82.6091 11.1511 84.8367 11.1511C87.0644 11.1511 88.9913 12.0052 90.6176 13.7134C92.2439 15.4216 93.0571 17.4441 93.0571 19.781C93.0571 22.1178 92.2576 24.113 90.6586 25.7665Z" fill-rule="evenodd"/>
	</g>
</svg>
